#!OML:ASF \\sashay\E\Suitcase\Project 1\Capture day 1\Session 1\Male1.ASF
:FULLY-SPECIFIED
:DEGREES
869
root -1.22224 17.639 9.36004 6.25684 7.52535 -1.12842
lowerback 0.246798 -0.394627 2.47791
upperback -2.14088 -0.447564 1.93204
thorax -2.33904 -0.249974 0.604518
lowerneck -17.2123 -4.60006 -5.93152
upperneck 18.1999 -3.93003 -3.79142
head 8.58976 -2.66877 -0.80079
rclavicle 2.23881e-014 -1.19271e-014
rhumerus -13.7527 -38.7703 -67.726
rradius 17.5898
rwrist -1.54186
rhand -5.93567 19.2297
rfingers 7.12502
rthumb 19.8942 -9.77201
lclavicle 2.23881e-014 -1.19271e-014
lhumerus -36.6451 -0.835897 85.9393
lradius 30.7183
lwrist -7.25001
lhand 1.82549 45.7106
lfingers 7.12502
lthumb 27.3377 73.7482
rfemur -7.69206 -3.47701 24.018
rtibia 13.4128
rfoot -11.0857 -13.7435
rtoes 17.2655
lfemur -9.68668 -4.93063 -15.7386
ltibia 16.3121
lfoot -12.0701 3.6164
ltoes -4.69914
870
root -1.22581 17.641 9.363 6.31668 7.60711 -1.07127
lowerback 0.236492 -0.446645 2.4054
upperback -2.20042 -0.517027 1.91461
thorax -2.39448 -0.284086 0.6292
lowerneck -17.0813 -4.49441 -5.75663
upperneck 18.111 -3.83257 -3.85349
head 8.52918 -2.61442 -0.832044
rclavicle -3.50358e-015 -1.66979e-014
rhumerus -13.7851 -38.9587 -67.7478
rradius 17.4142
rwrist -1.03058
rhand -5.93307 19.4831
rfingers 7.12502
rthumb 19.8967 -9.51836
lclavicle -3.50358e-015 -1.66979e-014
lhumerus -36.8575 -0.676693 85.8263
lradius 30.7982
lwrist -7.22986
lhand 1.89431 45.3302
lfingers 7.12502
lthumb 27.4035 73.3574
rfemur -7.73465 -3.40883 23.9829
rtibia 13.3902
rfoot -11.0747 -13.8975
rtoes 17.1274
lfemur -9.75508 -4.96574 -15.7756
ltibia 16.31
lfoot -12.0039 3.56681
ltoes -4.81098
871
root -1.22686 17.6385 9.36139 6.288 7.642 -1.22046
lowerback 0.320187 -0.427831 2.59762
upperback -2.20019 -0.484113 1.97415
thorax -2.44267 -0.27111 0.582877
lowerneck -17.0056 -4.49257 -5.93788
upperneck 17.9436 -3.84608 -3.61002
head 8.46778 -2.60291 -0.717844
rclavicle 2.16178e-014 -1.59028e-014
rhumerus -13.7191 -38.6154 -67.7355
rradius 17.1963
rwrist -1.49418
rhand -6.15465 20.0224
rfingers 7.12502
rthumb 19.6837 -9.00104
lclavicle 2.16178e-014 -1.59028e-014
lhumerus -36.8427 -0.582448 85.8521
lradius 30.8143
lwrist -7.31692
lhand 1.74798 45.1672
lfingers 7.12502
lthumb 27.2635 73.2165
rfemur -7.7389 -3.48153 24.1588
rtibia 13.3882
rfoot -11.036 -13.8584
rtoes 16.9147
lfemur -9.765 -4.90525 -15.6027
ltibia 16.3208
lfoot -11.9586 3.47223
ltoes -4.86921
872
root -1.226 17.6397 9.36435 6.30381 7.72765 -1.10642
lowerback 0.382527 -0.405285 2.5609
upperback -2.23289 -0.4509 1.97757
thorax -2.51079 -0.254389 0.606924
lowerneck -16.903 -4.53353 -6.24697
upperneck 17.8469 -3.89351 -3.32317
head 8.43067 -2.61318 -0.573981
rclavicle 1.47846e-014 -2.46493e-014
rhumerus -13.9461 -38.7415 -67.4685
rradius 17.0825
rwrist -1.3495
rhand -6.21038 20.2222
rfingers 7.12502
rthumb 19.6301 -8.80677
lclavicle 1.47846e-014 -2.46493e-014
lhumerus -36.9166 -0.684126 85.9678
lradius 30.8677
lwrist -7.29036
lhand 1.75778 45.2299
lfingers 7.12502
lthumb 27.2729 73.2777
rfemur -7.75542 -3.58063 24.0397
rtibia 13.4269
rfoot -11.0526 -13.8529
rtoes 16.7689
lfemur -9.74561 -5.07097 -15.7196
ltibia 16.2726
lfoot -11.8981 3.51516
ltoes -4.90991
873
root -1.23 17.6393 9.36806 6.33899 7.73415 -1.0543
lowerback 0.410638 -0.433266 2.49203
upperback -2.23148 -0.488598 1.96894
thorax -2.52483 -0.272015 0.637806
lowerneck -17.0903 -4.45027 -6.10475
upperneck 17.9539 -3.785 -3.37835
head 8.494 -2.56187 -0.608014
rclavicle 1.38155e-014 -2.38542e-015
rhumerus -13.9128 -38.785 -67.5288
rradius 16.9473
rwrist -0.988461
rhand -6.08314 20.0909
rfingers 7.12502
rthumb 19.7524 -8.92552
lclavicle 1.38155e-014 -2.38542e-015
lhumerus -36.8514 -0.493303 85.8969
lradius 30.8375
lwrist -7.22739
lhand 1.80017 45.2867
lfingers 7.12502
lthumb 27.3135 73.3282
rfemur -7.76914 -3.56928 23.9979
rtibia 13.4225
rfoot -11.0657 -13.8648
rtoes 16.7227
lfemur -9.7828 -5.12624 -15.7557
ltibia 16.3121
lfoot -11.9391 3.54122
ltoes -4.91436
874
root -1.22656 17.6381 9.37571 6.28481 7.7336 -0.959982
lowerback 0.530322 -0.422222 2.48422
upperback -2.27429 -0.468375 1.94652
thorax -2.63634 -0.262995 0.620085
lowerneck -17.1344 -4.39675 -6.02533
upperneck 18.1538 -3.68717 -3.53932
head 8.56445 -2.53258 -0.667298
rclavicle -2.33075e-014 -5.56597e-015
rhumerus -14.2461 -38.3272 -67.4024
rradius 16.9797
rwrist -1.32673
rhand -6.21232 20.0802
rfingers 7.12502
rthumb 19.6282 -8.94888
lclavicle -2.33075e-014 -5.56597e-015
lhumerus -36.9697 -0.667912 85.9906
lradius 30.8297
lwrist -7.09396
lhand 1.39736 45.1361
lfingers 7.12502
lthumb 26.9281 73.2376
rfemur -7.71474 -3.64032 23.8729
rtibia 13.5331
rfoot -11.1769 -13.7861
rtoes 16.7662
lfemur -9.62677 -5.17496 -15.8779
ltibia 16.2242
lfoot -11.9819 3.55335
ltoes -4.91589
